<svg id="Layer_1" data-name="Layer 1" xmlns="http://www.w3.org/2000/svg" xmlns:xlink="http://www.w3.org/1999/xlink" viewBox="0 0 222.98 56.09"><defs><style>.cls-1{fill:none;}.cls-2{clip-path:url(#clip-path);}.cls-3,.cls-4{fill:#002d74;}.cls-3{fill-rule:evenodd;}.cls-5{clip-path:url(#clip-path-2);}</style><clipPath id="clip-path" transform="translate(0 0)"><rect class="cls-1" width="35" height="37.71"/></clipPath><clipPath id="clip-path-2" transform="translate(0 0)"><rect class="cls-1" x="42.98" y="1.48" width="180" height="24.58"/></clipPath></defs><g class="cls-2"><path class="cls-3" d="M16.74,11.09A82.06,82.06,0,0,0,.55,12.85c2.34,14.81,11.59,22,16.19,24.56Zm-6.93,3A5.92,5.92,0,1,0,15.72,20a5.92,5.92,0,0,0-5.91-5.91m.25,5.66h2.3a7.24,7.24,0,0,0-.18-1.31,12.49,12.49,0,0,1-2.12.21Zm2-1.8a7.22,7.22,0,0,0-.57-1.31,9.6,9.6,0,0,1-1.41.13v1.37a13,13,0,0,0,2-.19m-.87-1.78a7.15,7.15,0,0,0-1.11-1.3v1.39a10.38,10.38,0,0,0,1.11-.09m.55-.09a10.61,10.61,0,0,0,1.37-.36,5.43,5.43,0,0,0-2.51-1.06,8.45,8.45,0,0,1,1.14,1.42m-3.29.09a10.56,10.56,0,0,0,1.12.09v-1.4a7.69,7.69,0,0,0-1.12,1.31M9,14.65a5.42,5.42,0,0,0-2.5,1,10.9,10.9,0,0,0,1.36.36A8,8,0,0,1,9,14.65m-.88,2a6.58,6.58,0,0,0-.57,1.31,13,13,0,0,0,2,.19V16.75a9.48,9.48,0,0,1-1.41-.13m-.71,1.8a5.82,5.82,0,0,0-.18,1.31h2.3v-1.1a12.38,12.38,0,0,1-2.12-.21m-.5-.09a14.27,14.27,0,0,1-2-.62,5.26,5.26,0,0,0-.49,2H6.74a7.15,7.15,0,0,1,.19-1.4M4.42,20.24a5.17,5.17,0,0,0,.49,2,14.24,14.24,0,0,1,2-.61,7.37,7.37,0,0,1-.19-1.4Zm3,1.3a13.59,13.59,0,0,1,2.12-.2v-1.1H7.25a6.26,6.26,0,0,0,.18,1.3m.14.5a6.58,6.58,0,0,0,.57,1.31,9.6,9.6,0,0,1,1.41-.13V21.85a11.86,11.86,0,0,0-2,.19m.86,1.78a7.69,7.69,0,0,0,1.12,1.31v-1.4a10.56,10.56,0,0,0-1.12.09m-.55.09a8.27,8.27,0,0,0-1.36.36A5.42,5.42,0,0,0,9,25.32a8,8,0,0,1-1.14-1.41m3.29-.1c-.37,0-.74-.07-1.11-.08v1.39a7.21,7.21,0,0,0,1.11-1.31m-.59,1.51a5.41,5.41,0,0,0,2.51-1.05,9.24,9.24,0,0,0-1.37-.37,7.72,7.72,0,0,1-1.14,1.42m.89-2A8,8,0,0,0,12,22a11.86,11.86,0,0,0-2-.19v1.37a9.6,9.6,0,0,1,1.41.13m.71-1.81a7,7,0,0,0,.18-1.3h-2.3v1.1a13.59,13.59,0,0,1,2.12.2m.5.1a14.24,14.24,0,0,1,2,.61,5.36,5.36,0,0,0,.5-2H12.87a7.37,7.37,0,0,1-.19,1.4m2.52-1.91a5.46,5.46,0,0,0-.5-2,13.08,13.08,0,0,1-2,.62,7.15,7.15,0,0,1,.19,1.4Zm-1.66-3.65a10.55,10.55,0,0,1-1.55.45,7,7,0,0,1,.55,1.3,13.31,13.31,0,0,0,1.93-.57,5.9,5.9,0,0,0-.93-1.18M5.15,17.26a12.7,12.7,0,0,0,1.91.57,7.8,7.8,0,0,1,.55-1.3,10.31,10.31,0,0,1-1.53-.45,5.56,5.56,0,0,0-.93,1.18m.93,6.63a10.09,10.09,0,0,1,1.54-.45,7.39,7.39,0,0,1-.56-1.3,12.7,12.7,0,0,0-1.91.57,5.56,5.56,0,0,0,.93,1.18m8.39-1.18a13.35,13.35,0,0,0-1.93-.58A7.13,7.13,0,0,1,12,23.44a10.92,10.92,0,0,1,1.55.45,5.9,5.9,0,0,0,.93-1.18" transform="translate(0 0)"/><path class="cls-4" d="M0,5.67v-3a.89.89,0,0,1,.67-.85h0a80.39,80.39,0,0,1,33.6,0h0a.87.87,0,0,1,.7.85v3a46,46,0,0,1-.34,5.66,83.55,83.55,0,0,0-34.32,0A46.33,46.33,0,0,1,0,5.67m17.5-3.1a18.16,18.16,0,0,0-8.73-.71l-1,.78-.27,0a.29.29,0,0,0-.19.14L4.51,9c-.09.17,0,.31.22.28A69.64,69.64,0,0,1,17.5,8.22h0A69.82,69.82,0,0,1,30.28,9.28.19.19,0,0,0,30.49,9l-2.8-6.18a.29.29,0,0,0-.19-.14l-.27,0-1-.78a18.15,18.15,0,0,0-8.73.71Z" transform="translate(0 0)"/><path class="cls-4" d="M17.29,7.38A22,22,0,0,0,7.08,6.61L8.47,2.66l-.92.7-1.92,5a87.3,87.3,0,0,1,11.19-.84,1,1,0,0,1,.47-.13" transform="translate(0 0)"/><path class="cls-4" d="M17.67,7.38a22,22,0,0,1,10.21-.77L26.49,2.66l.92.7,1.92,5a87.3,87.3,0,0,0-11.19-.84,1,1,0,0,0-.47-.13" transform="translate(0 0)"/><path class="cls-4" d="M18.26,22.23V37.41a26.58,26.58,0,0,0,3.24-2.12V24.39Z" transform="translate(0 0)"/><path class="cls-4" d="M21.5,11.19c-1.07,0-2.16-.09-3.24-.1v3.6l3.24,2.16Z" transform="translate(0 0)"/><path class="cls-4" d="M28,21.16v-9.4c-1.07-.13-2.15-.26-3.23-.35V19Z" transform="translate(0 0)"/><path class="cls-4" d="M24.74,26.55v5.92A31.74,31.74,0,0,0,28,28.71h0Z" transform="translate(0 0)"/><polygon class="cls-4" points="27.98 28.71 27.99 28.71 27.98 28.7 27.98 28.71"/><path class="cls-4" d="M31.23,23.32a37.16,37.16,0,0,0,3.22-10.47c-1.07-.23-2.14-.43-3.23-.61V23.31Z" transform="translate(0 0)"/><polygon class="cls-4" points="21.5 16.85 21.5 24.39 24.74 26.55 24.74 19 21.5 16.85"/><path class="cls-4" d="M31.22,23.31,28,21.16V28.7h0a33.63,33.63,0,0,0,3.23-5.37Z" transform="translate(0 0)"/><path class="cls-4" d="M31.22,23.34v0h0Z" transform="translate(0 0)"/></g><g class="cls-5"><path class="cls-4" d="M48.12,5.89c0-3.15-.28-3.5-2-3.64l-.71-.06c-.17-.11-.11-.62.06-.71,1.65.06,2.61.09,3.81.09s2.1,0,3.24-.09c.17.09.23.6.06.71l-.43.06c-1.67.23-1.73.63-1.73,3.64V16.45A15.84,15.84,0,0,1,49.8,22a6.18,6.18,0,0,1-5.6,4.09c-.34,0-1.22,0-1.22-.59s.42-1.31,1-1.31a3.34,3.34,0,0,1,1,.17,4.57,4.57,0,0,0,1.2.2,1.2,1.2,0,0,0,1.13-.74c.66-1.34.74-5.61.74-7.14Z" transform="translate(0 0)"/><path class="cls-4" d="M52.56,12.59A8.29,8.29,0,0,1,61.1,4.12a7.9,7.9,0,0,1,8.33,8.23,8.19,8.19,0,0,1-8.33,8.38c-5.33,0-8.54-3.82-8.54-8.14M67,13.1c0-4-1.75-8.23-6.34-8.23-2.49,0-5.73,1.7-5.73,7C55,15.38,56.69,20,61.42,20,64.3,20,67,17.83,67,13.1" transform="translate(0 0)"/><path class="cls-4" d="M74.88,12.59c-1.15,0-1.2.05-1.2.77v3.39c0,2.52.12,2.85,1.47,3l.69.07c.15.09.1.53,0,.6-1.29-.05-2.11-.07-3-.07s-1.85,0-2.79.07a.46.46,0,0,1,0-.6l.4-.07c1.35-.24,1.4-.48,1.4-3V8.11c0-2.52-.17-2.93-1.42-3l-.63,0c-.14-.09-.09-.53,0-.6,1.18,0,2,.07,3,.07s1.75,0,2.78-.07c.15.07.19.51,0,.6l-.46,0c-1.39.15-1.44.51-1.44,3v2.76c0,.74,0,.76,1.2.76h6.87c1.15,0,1.2,0,1.2-.76V8.11c0-2.52,0-2.88-1.47-3L81,5c-.15-.09-.1-.53,0-.6,1.1.05,1.91.07,2.9.07s1.75,0,2.83-.07c.14.07.19.51,0,.6l-.5,0c-1.4.15-1.45.51-1.45,3v8.64c0,2.52,0,2.83,1.45,3l.57.07c.14.09.1.53-.05.6-1.15-.05-2-.07-2.9-.07s-1.85,0-2.9.07a.45.45,0,0,1,0-.6l.45-.07c1.47-.24,1.47-.48,1.47-3V13.36c0-.72,0-.77-1.2-.77Z" transform="translate(0 0)"/><path class="cls-4" d="M103.32,16.27c0,.72,0,3.57.08,4.2a.44.44,0,0,1-.46.26c-.29-.41-1-1.25-3.07-3.62L94.3,10.77C93.65,10,92,8.06,91.52,7.53h0a5.93,5.93,0,0,0-.12,1.56v5.23c0,1.13,0,4.25.43,5,.15.26.62.41,1.22.46l.75.07a.44.44,0,0,1,0,.6c-1.08-.05-1.92-.07-2.81-.07s-1.65,0-2.49.07a.44.44,0,0,1-.05-.6l.65-.07c.55-.08.93-.22,1-.48a23,23,0,0,0,.32-4.95V7.39a2.21,2.21,0,0,0-.53-1.73,2.57,2.57,0,0,0-1.49-.58l-.41,0a.43.43,0,0,1,0-.6c1,.07,2.28.07,2.71.07a7.59,7.59,0,0,0,1.11-.07c.48,1.23,3.31,4.4,4.1,5.28l2.33,2.62c1.65,1.85,2.83,3.19,4,4.34h0a2.3,2.3,0,0,0,.1-1V10.53c0-1.13,0-4.25-.48-5-.14-.21-.53-.36-1.49-.48L100,5c-.17-.14-.15-.53,0-.6,1.11.05,1.92.07,2.83.07s1.66,0,2.48-.07a.43.43,0,0,1,.05.6l-.34,0c-.77.12-1.25.31-1.35.51-.4.86-.36,3.84-.36,4.94Z" transform="translate(0 0)"/><path class="cls-4" d="M109.67,20.73a7.45,7.45,0,0,1-3.75-.89,11.11,11.11,0,0,1-.64-3.36c.12-.17.48-.22.57-.07C106.21,17.63,107.2,20,110,20a2.73,2.73,0,0,0,3-2.77,3.6,3.6,0,0,0-2-3.35l-2.28-1.49a5.13,5.13,0,0,1-2.59-4.13c0-2.28,1.78-4.13,4.89-4.13a9.69,9.69,0,0,1,2.24.31,3.11,3.11,0,0,0,.84.15,10.7,10.7,0,0,1,.43,2.93c-.1.14-.48.21-.6.07a3.13,3.13,0,0,0-3.26-2.71c-2.36,0-2.86,1.55-2.86,2.66a3.77,3.77,0,0,0,2,3l1.92,1.2c1.51.94,3,2.33,3,4.61,0,2.64-2,4.44-5.11,4.44" transform="translate(0 0)"/><path class="cls-4" d="M129,11.16c-1.36,0-1.42.05-1.42.91v4c0,3,.14,3.38,1.74,3.55l.82.09c.17.11.12.62,0,.71-1.54-.06-2.51-.09-3.62-.09s-2.19.06-3.3.09a.54.54,0,0,1,0-.71l.48-.09c1.59-.28,1.65-.56,1.65-3.55V5.84c0-3-.2-3.47-1.68-3.59l-.74-.06c-.17-.11-.11-.62.06-.71,1.39,0,2.36.09,3.58.09s2.08,0,3.3-.09c.17.09.23.6.06.71l-.54.06c-1.65.17-1.71.6-1.71,3.59V9.11c0,.88.06.91,1.42.91h8.14c1.37,0,1.42,0,1.42-.91V5.84c0-3-.05-3.42-1.73-3.59l-.54-.06c-.17-.11-.12-.62.05-.71,1.31.06,2.28.09,3.45.09s2.07,0,3.35-.09c.17.09.23.6.06.71l-.6.06c-1.65.17-1.7.6-1.7,3.59V16.08c0,3,.05,3.35,1.7,3.55l.68.09c.18.11.12.62-.05.71-1.37-.06-2.33-.09-3.44-.09s-2.19,0-3.45.09a.55.55,0,0,1-.05-.71l.54-.09c1.73-.28,1.73-.56,1.73-3.55v-4c0-.86-.05-.91-1.42-.91Z" transform="translate(0 0)"/><path class="cls-4" d="M143.13,12.59a8.29,8.29,0,0,1,8.54-8.47A7.9,7.9,0,0,1,160,12.35a8.2,8.2,0,0,1-8.33,8.38c-5.33,0-8.54-3.82-8.54-8.14m14.47.51c0-4-1.75-8.23-6.34-8.23-2.49,0-5.73,1.7-5.73,7,0,3.55,1.72,8.16,6.45,8.16,2.88,0,5.62-2.16,5.62-6.89" transform="translate(0 0)"/><path class="cls-4" d="M164.34,16.75c0,2.52,0,2.83,1.58,3l.65.07a.47.47,0,0,1,0,.6c-1.37-.05-2.16-.07-3.12-.07s-1.88,0-2.93.07c-.15-.07-.19-.46,0-.6l.5-.07c1.4-.2,1.44-.48,1.44-3V7.89c0-2,0-2.45-1.12-2.57l-.87-.09a.4.4,0,0,1,.05-.6,37.21,37.21,0,0,1,4.75-.2,8.74,8.74,0,0,1,4.61,1A4.17,4.17,0,0,1,171.71,9a4.07,4.07,0,0,1-2.4,3.82,8.19,8.19,0,0,1-3.31.72c-.17-.07-.17-.43,0-.48,2.6-.48,3.53-1.94,3.53-4a3.54,3.54,0,0,0-3.86-3.84c-1.27,0-1.3.09-1.3.86Z" transform="translate(0 0)"/><path class="cls-4" d="M174.33,8.1c0-2.52-.05-2.9-1.44-3l-.6,0c-.15-.09-.1-.53,0-.6,1.18.05,1.95.07,3,.07.93,0,1.75,0,2.78-.07.15.07.2.51.05.6l-.45,0c-1.4.15-1.45.5-1.45,3v2.77c0,.45.05.91.32.91a1.4,1.4,0,0,0,.67-.27c.33-.28,1-.91,1.22-1.15l2.59-2.57a25.39,25.39,0,0,0,1.88-2,.73.73,0,0,0,.17-.38c0-.1-.1-.17-.41-.24L182.08,5a.39.39,0,0,1,0-.6c.84.05,1.8.07,2.64.07s1.65,0,2.37-.07a.45.45,0,0,1,.05.6,5.88,5.88,0,0,0-2.23.68,23.71,23.71,0,0,0-3.36,2.78l-2.16,2c-.34.34-.55.55-.55.74s.14.36.45.75c2.28,2.61,4.13,4.77,6,6.74a3,3,0,0,0,1.92,1l.65.07a.42.42,0,0,1,0,.6c-.62-.05-1.56-.08-2.68-.08s-1.83,0-2.93.08c-.17-.05-.24-.46-.1-.6l.55-.1c.34,0,.58-.12.58-.24s-.17-.33-.34-.55c-.45-.58-1.08-1.22-2-2.26L179,14.51c-1.37-1.53-1.75-2-2.33-2-.36,0-.41.31-.41,1.15v3.1c0,2.51.05,2.85,1.4,3l.65.07c.14.09.09.52-.05.6-1.18-.05-2-.08-2.93-.08s-1.8,0-2.78.08a.45.45,0,0,1-.05-.6l.48-.07c1.27-.2,1.32-.49,1.32-3Z" transform="translate(0 0)"/><path class="cls-4" d="M190.8,8.15c0-2.54-.05-2.95-1.46-3.07l-.6,0c-.15-.09-.1-.53,0-.6,1.2.05,2,.07,3,.07s1.77,0,3-.07c.15.07.2.51.05.6l-.6,0c-1.41.12-1.46.53-1.46,3.07V16.7c0,2.54,0,2.88,1.46,3.05l.6.07c.15.09.1.52-.05.6-1.2-.05-2-.08-3-.08s-1.83,0-3,.08a.47.47,0,0,1,0-.6l.6-.07c1.41-.17,1.46-.51,1.46-3.05Z" transform="translate(0 0)"/><path class="cls-4" d="M211.56,16.27c0,.72,0,3.57.07,4.2a.43.43,0,0,1-.45.26c-.29-.41-1-1.25-3.08-3.62l-5.56-6.34c-.65-.74-2.28-2.71-2.79-3.24h0a5.82,5.82,0,0,0-.13,1.56v5.23c0,1.13,0,4.25.44,5,.14.26.62.41,1.22.46l.74.07a.44.44,0,0,1,0,.6c-1.08-.05-1.92-.07-2.81-.07s-1.66,0-2.5.07a.46.46,0,0,1,0-.6l.65-.07c.55-.08.94-.22,1.06-.48a23.67,23.67,0,0,0,.31-4.95V7.39a2.17,2.17,0,0,0-.53-1.73,2.54,2.54,0,0,0-1.49-.58l-.4,0a.41.41,0,0,1,0-.6c1,.07,2.27.07,2.71.07a7.45,7.45,0,0,0,1.1-.07c.48,1.23,3.31,4.4,4.1,5.28l2.33,2.62c1.66,1.85,2.83,3.19,4,4.34h0a2.3,2.3,0,0,0,.1-1V10.53c0-1.13,0-4.25-.48-5-.15-.21-.53-.36-1.49-.48l-.41,0c-.17-.14-.14-.53.05-.6,1.1.05,1.92.07,2.83.07s1.66,0,2.47-.07a.41.41,0,0,1,0,.6l-.34,0c-.76.12-1.24.31-1.34.51-.41.86-.36,3.84-.36,4.94Z" transform="translate(0 0)"/><path class="cls-4" d="M217.86,20.73a7.43,7.43,0,0,1-3.74-.89,11.08,11.08,0,0,1-.65-3.36c.12-.17.48-.22.58-.07.36,1.22,1.34,3.58,4.12,3.58a2.73,2.73,0,0,0,3-2.77,3.6,3.6,0,0,0-2-3.35l-2.28-1.49a5.14,5.14,0,0,1-2.6-4.13c0-2.28,1.78-4.13,4.9-4.13a9.68,9.68,0,0,1,2.23.31,3.11,3.11,0,0,0,.84.15,10.33,10.33,0,0,1,.43,2.93.48.48,0,0,1-.6.07,3.13,3.13,0,0,0-3.26-2.71c-2.35,0-2.86,1.55-2.86,2.66a3.79,3.79,0,0,0,2,3l1.92,1.2c1.52.94,3,2.33,3,4.61,0,2.64-2,4.44-5.12,4.44" transform="translate(0 0)"/></g><path class="cls-4" d="M73.46,31.34a.2.2,0,0,1,0-.3c.34,0,.9,0,1.28,0l1.42,0c.11,0,.09.21,0,.3l-.28,0c-.27,0-.41.1-.41.21a10.13,10.13,0,0,0,.64,1.66c.7,1.55,1.43,3.11,2.15,4.63.29-.62.63-1.31,1-2a2.51,2.51,0,0,0,.2-.51,1.17,1.17,0,0,0-.1-.32c-.43-1-.89-2-1.36-3-.19-.38-.38-.64-.8-.68l-.29,0a.19.19,0,0,1,0-.3c.36,0,.83,0,1.33,0s1.08,0,1.36,0c.09,0,.1.2,0,.3l-.33,0c-.48,0-.49.12-.26.68s.61,1.39,1,2.16c.23-.48.46-1,.73-1.62.45-1.06.39-1.19,0-1.22l-.37,0c-.09-.13-.07-.26,0-.3.34,0,.71,0,1.17,0s.9,0,1.19,0a.21.21,0,0,1,0,.3l-.36,0c-.52,0-.74.6-1,1.1s-.79,1.54-1,2a1.1,1.1,0,0,0-.11.29.93.93,0,0,0,.08.3c.43,1,.86,1.89,1.27,2.83.38-.87.76-1.74,1.12-2.62l1-2.47a7.67,7.67,0,0,0,.37-1.12c0-.18-.15-.28-.41-.29l-.36,0c-.1-.12-.09-.25,0-.3.47,0,.81,0,1.19,0s.83,0,1.16,0c.1,0,.11.2,0,.3l-.23,0c-.62.06-.74.43-1.48,2.16l-.91,2.09c-.54,1.27-1,2.49-1.55,3.81a.2.2,0,0,1-.14,0,.34.34,0,0,1-.18,0c-.4-1.1-1.11-2.65-1.5-3.52a37.74,37.74,0,0,0-1.55,3.52.24.24,0,0,1-.15,0,.39.39,0,0,1-.18,0c-.22-.52-.7-1.63-.86-2-.79-1.73-1.56-3.45-2.37-5.18-.24-.5-.38-.84-.91-.89Z" transform="translate(0 0)"/><path class="cls-4" d="M89.24,35.26c-.59,0-.62,0-.62.39V37.4c0,1.3.06,1.48.76,1.55l.36,0a.24.24,0,0,1,0,.31c-.67,0-1.09,0-1.57,0s-1,0-1.44,0a.24.24,0,0,1,0-.31l.21,0c.69-.12.72-.25.72-1.55V32.94c0-1.31-.09-1.52-.74-1.57l-.32,0a.24.24,0,0,1,0-.31c.6,0,1,0,1.56,0s.9,0,1.44,0c.07,0,.1.26,0,.31l-.23,0c-.72.08-.75.26-.75,1.57v1.42c0,.39,0,.4.62.4h3.55c.6,0,.62,0,.62-.4V32.94c0-1.31,0-1.49-.76-1.57l-.23,0c-.08-.05,0-.27,0-.31.57,0,1,0,1.51,0s.9,0,1.46,0c.07,0,.1.26,0,.31l-.26,0c-.72.08-.74.26-.74,1.57V37.4c0,1.3,0,1.46.74,1.55l.3,0c.08,0,0,.27,0,.31-.6,0-1,0-1.5,0s-1,0-1.51,0a.24.24,0,0,1,0-.31l.23,0c.76-.12.76-.25.76-1.55V35.65c0-.37,0-.39-.62-.39Z" transform="translate(0 0)"/><path class="cls-4" d="M98.22,33c0-1.31,0-1.52-.76-1.59l-.31,0a.24.24,0,0,1,0-.31c.62,0,1,0,1.56,0s.92,0,1.54,0c.07,0,.1.26,0,.31l-.31,0c-.73.07-.75.28-.75,1.59v4.42c0,1.31,0,1.48.75,1.57l.31,0c.08,0,0,.27,0,.31-.62,0-1,0-1.54,0s-.94,0-1.56,0a.24.24,0,0,1,0-.31l.31,0c.74-.09.76-.26.76-1.57Z" transform="translate(0 0)"/><path class="cls-4" d="M106,37.4c0,1.3,0,1.49.74,1.55l.4,0a.26.26,0,0,1,0,.31c-.71,0-1.13,0-1.63,0s-.93,0-1.72,0a.21.21,0,0,1,0-.31l.44,0c.71-.06.77-.25.77-1.55V31.86c0-.39,0-.4-.37-.4h-.68a2.51,2.51,0,0,0-1.53.31,2.28,2.28,0,0,0-.56.86.24.24,0,0,1-.32-.09,13.23,13.23,0,0,0,.47-1.85s.2,0,.24,0c.07.4.48.39,1.05.39h5c.67,0,.78,0,1-.35a.25.25,0,0,1,.23,0,7.29,7.29,0,0,0-.19,1.89.22.22,0,0,1-.32,0,1.63,1.63,0,0,0-.31-.9,2.5,2.5,0,0,0-1.44-.31h-.88c-.37,0-.36,0-.36.42Z" transform="translate(0 0)"/><path class="cls-4" d="M111.83,33c0-1.31,0-1.52-.75-1.59l-.31,0c-.08-.05,0-.27,0-.31.62,0,1,0,1.57,0s.91,0,1.53,0a.24.24,0,0,1,0,.31l-.31,0c-.73.07-.76.28-.76,1.59v4.42c0,1.31,0,1.48.76,1.57l.31,0a.24.24,0,0,1,0,.31c-.62,0-1,0-1.53,0s-1,0-1.57,0a.24.24,0,0,1,0-.31l.31,0c.73-.09.75-.26.75-1.57Z" transform="translate(0 0)"/><path class="cls-4" d="M123.32,37.15c0,.38,0,1.85,0,2.18a.23.23,0,0,1-.24.13c-.15-.21-.51-.64-1.59-1.87l-2.87-3.28c-.34-.38-1.18-1.4-1.44-1.67h0a3.12,3.12,0,0,0-.06.8v2.71a9.82,9.82,0,0,0,.22,2.57A.85.85,0,0,0,118,39l.38,0a.23.23,0,0,1,0,.31c-.56,0-1,0-1.46,0s-.85,0-1.29,0a.24.24,0,0,1,0-.31l.33,0c.29,0,.49-.11.55-.25a12.17,12.17,0,0,0,.16-2.55V32.56a1.14,1.14,0,0,0-.27-.89,1.41,1.41,0,0,0-.77-.3l-.21,0a.21.21,0,0,1,0-.31c.52,0,1.18,0,1.41,0a5.1,5.1,0,0,0,.57,0,16.74,16.74,0,0,0,2.12,2.73l1.2,1.35c.86,1,1.46,1.65,2,2.24h0a1.23,1.23,0,0,0,0-.52V34.19a8.56,8.56,0,0,0-.25-2.57c-.07-.11-.27-.19-.77-.25l-.21,0c-.08-.08-.07-.27,0-.31.57,0,1,0,1.46,0s.86,0,1.28,0a.21.21,0,0,1,0,.31l-.17,0c-.4.06-.64.16-.69.26a10.09,10.09,0,0,0-.19,2.56Z" transform="translate(0 0)"/><path class="cls-4" d="M133.1,38c0,.49.08.79.3.88a.1.1,0,0,1,0,.15,2.94,2.94,0,0,0-.61.11,9.91,9.91,0,0,1-2.22.32,5.14,5.14,0,0,1-3.78-1.38,3.86,3.86,0,0,1-1.14-2.81,4.24,4.24,0,0,1,1.11-2.94,5.13,5.13,0,0,1,3.93-1.45,7.53,7.53,0,0,1,1.58.18,3.64,3.64,0,0,0,.77.12,12.68,12.68,0,0,0,.19,1.79c0,.1-.27.12-.34,0a2.27,2.27,0,0,0-2.54-1.76,3.29,3.29,0,0,0-3.46,3.57c0,2.38,1.22,4.26,3.72,4.26.77,0,1.23-.16,1.36-.38a1.35,1.35,0,0,0,.13-.7v-.5c0-1,0-1.12-.81-1.2l-.55-.06c-.1-.05-.08-.28,0-.31.36,0,1.05,0,1.78,0,.48,0,.9,0,1.31,0a.22.22,0,0,1,0,.31l-.2,0c-.52.06-.54.41-.54,1Z" transform="translate(0 0)"/><path class="cls-4" d="M141.45,39.46a3.84,3.84,0,0,1-1.94-.46,5.52,5.52,0,0,1-.33-1.73c.06-.09.24-.12.29,0a2.27,2.27,0,0,0,2.14,1.85,1.41,1.41,0,0,0,1.55-1.43,1.87,1.87,0,0,0-1-1.74L141,35.14A2.64,2.64,0,0,1,139.62,33c0-1.18.92-2.13,2.53-2.13a4.71,4.71,0,0,1,1.16.16,1.58,1.58,0,0,0,.43.07,5.57,5.57,0,0,1,.22,1.52.24.24,0,0,1-.31,0,1.62,1.62,0,0,0-1.68-1.4,1.3,1.3,0,0,0-1.48,1.38,1.94,1.94,0,0,0,1.06,1.52l1,.62a2.82,2.82,0,0,1,1.55,2.39,2.34,2.34,0,0,1-2.64,2.29" transform="translate(0 0)"/><path class="cls-4" d="M147.15,31.93a5.34,5.34,0,0,1,3.35-1.05,9.2,9.2,0,0,1,2.2.3.85.85,0,0,0,.34,0c0,.29.08,1.07.18,1.83a.27.27,0,0,1-.34,0,2.24,2.24,0,0,0-2.54-1.81c-1.9,0-3.51,1.2-3.51,3.77s1.65,4,3.68,4a2.63,2.63,0,0,0,2.59-1.78.28.28,0,0,1,.33.05,4.57,4.57,0,0,1-.6,1.7,2.7,2.7,0,0,0-.43.13,7.41,7.41,0,0,1-2,.28,5.4,5.4,0,0,1-3.09-.83,4,4,0,0,1-1.76-3.41,4.12,4.12,0,0,1,1.56-3.29" transform="translate(0 0)"/><path class="cls-4" d="M157.49,35.26c-.59,0-.62,0-.62.39V37.4c0,1.3.06,1.48.76,1.55l.36,0a.24.24,0,0,1,0,.31c-.67,0-1.09,0-1.57,0s-1,0-1.44,0a.23.23,0,0,1,0-.31l.21,0c.69-.12.71-.25.71-1.55V32.94c0-1.31-.08-1.52-.73-1.57l-.32,0a.24.24,0,0,1,0-.31c.6,0,1,0,1.56,0s.9,0,1.44,0c.07,0,.1.26,0,.31l-.23,0c-.72.08-.75.26-.75,1.57v1.42c0,.39,0,.4.62.4H161c.6,0,.62,0,.62-.4V32.94c0-1.31,0-1.49-.76-1.57l-.23,0c-.08-.05,0-.27,0-.31.57,0,1,0,1.5,0s.91,0,1.47,0c.07,0,.1.26,0,.31l-.26,0c-.72.08-.74.26-.74,1.57V37.4c0,1.3,0,1.46.74,1.55l.3,0a.24.24,0,0,1,0,.31c-.59,0-1,0-1.5,0s-.95,0-1.5,0a.24.24,0,0,1,0-.31l.23,0c.76-.12.76-.25.76-1.55V35.65c0-.37,0-.39-.62-.39Z" transform="translate(0 0)"/><path class="cls-4" d="M165.32,35.26a4.29,4.29,0,0,1,4.41-4.38A4.08,4.08,0,0,1,174,35.13a4.23,4.23,0,0,1-4.31,4.33,4.17,4.17,0,0,1-4.41-4.2m7.48.26c0-2.05-.91-4.26-3.28-4.26-1.29,0-3,.88-3,3.6,0,1.83.89,4.22,3.33,4.22,1.49,0,2.91-1.12,2.91-3.56" transform="translate(0 0)"/><path class="cls-4" d="M175.79,35.26a4.29,4.29,0,0,1,4.42-4.38,4.07,4.07,0,0,1,4.3,4.25,4.23,4.23,0,0,1-4.3,4.33,4.18,4.18,0,0,1-4.42-4.2m7.48.26c0-2.05-.9-4.26-3.27-4.26-1.29,0-3,.88-3,3.6,0,1.83.9,4.22,3.34,4.22,1.49,0,2.9-1.12,2.9-3.56" transform="translate(0 0)"/><path class="cls-4" d="M187.19,32.93c0-1.3,0-1.5-.81-1.56l-.31,0a.24.24,0,0,1,0-.31c.69,0,1.11,0,1.61,0s.91,0,1.53,0a.26.26,0,0,1,0,.31l-.3,0c-.73.06-.75.26-.75,1.56v4.32c0,.78,0,1.11.26,1.34s.37.29,1.35.29,1.31-.05,1.51-.16a2.68,2.68,0,0,0,.82-1.23c.08-.06.31,0,.31.07a10.33,10.33,0,0,1-.52,1.74c-.63,0-1.81,0-3.09,0h-1.14c-.52,0-.92,0-1.61,0a.24.24,0,0,1,0-.31l.37,0c.72-.07.75-.25.75-1.55Z" transform="translate(0 0)"/><path class="cls-4" d="M85.49,49.25a4.74,4.74,0,0,1-1.32,2.82,2.41,2.41,0,0,1-1.77.86c-.8,0-1.32-.59-1.24-1.66a4.66,4.66,0,0,1,1.35-2.77,2.41,2.41,0,0,1,1.71-.81c.88,0,1.32.66,1.27,1.56m-2.26-.59A7.19,7.19,0,0,0,82,51.76c0,.43.15.79.51.79s.58-.11,1-.64a7.65,7.65,0,0,0,1.15-3c0-.38-.06-.82-.5-.82-.24,0-.54.12-.9.6" transform="translate(0 0)"/><path class="cls-4" d="M89.08,48.32c-.07.21-.17.61-.32,1.16-.37,1.39-.71,2.58-1.1,3.94a5.12,5.12,0,0,1-1,2,2.35,2.35,0,0,1-1.49.67c-.67,0-.91-.42-.91-.61a.72.72,0,0,1,.29-.56.2.2,0,0,1,.28,0,1.5,1.5,0,0,0,.94.51c.25,0,.51-.09.8-1,.57-2,1-4.1,1.6-6.12h-1c-.13-.11-.08-.34.09-.46h1.06a7.72,7.72,0,0,1,1.39-3,2.53,2.53,0,0,1,2-1,.9.9,0,0,1,1,.82c0,.32-.33.71-.53.71s-.16-.11-.17-.2c0-.68-.39-.91-.7-.91a1.28,1.28,0,0,0-.89.67,9.44,9.44,0,0,0-1.16,2.89h1.55a.33.33,0,0,1-.12.46Z" transform="translate(0 0)"/><path class="cls-4" d="M96.32,46.43c0-1.3,0-1.48-.75-1.57l-.2,0c-.08-.05-.05-.28,0-.31.54,0,1,0,1.47,0h2.33c.79,0,1.52,0,1.67,0a12.74,12.74,0,0,1,.2,1.65c0,.07-.25.1-.31,0-.18-.58-.3-1-.94-1.18a6.15,6.15,0,0,0-1.2-.07h-.9c-.37,0-.37,0-.37.5v2.48c0,.34,0,.34.41.34h.72a4.63,4.63,0,0,0,1-.07c.15-.05.24-.12.3-.43l.1-.51a.23.23,0,0,1,.32,0c0,.3,0,.78,0,1.25s0,.92,0,1.19a.23.23,0,0,1-.32,0l-.11-.48a.53.53,0,0,0-.39-.47,4.11,4.11,0,0,0-1-.06h-.72c-.37,0-.41,0-.41.33v1.75c0,.66,0,1.08.24,1.29s.4.29,1.5.29a3.51,3.51,0,0,0,1.58-.19,3.1,3.1,0,0,0,.89-1.2.23.23,0,0,1,.31.08,11.32,11.32,0,0,1-.56,1.73c-1.12,0-2.22,0-3.33,0H96.86c-.54,0-1,0-1.69,0a.24.24,0,0,1,0-.31l.41,0c.71-.06.77-.25.77-1.55Z" transform="translate(0 0)"/><path class="cls-4" d="M110.86,50.64c0,.37,0,1.85,0,2.17a.23.23,0,0,1-.24.14c-.15-.21-.51-.64-1.59-1.87l-2.88-3.28c-.33-.38-1.17-1.4-1.44-1.67h0a3.12,3.12,0,0,0-.06.8v2.71a9.82,9.82,0,0,0,.22,2.57.83.83,0,0,0,.63.23l.39,0a.23.23,0,0,1,0,.31c-.55,0-1,0-1.45,0s-.85,0-1.29,0a.23.23,0,0,1,0-.31l.33,0c.29,0,.49-.11.55-.25a12.17,12.17,0,0,0,.16-2.55V46.05a1.13,1.13,0,0,0-.27-.89,1.41,1.41,0,0,0-.77-.3l-.21,0a.21.21,0,0,1,0-.31c.52,0,1.18,0,1.4,0a4.91,4.91,0,0,0,.57,0A17.36,17.36,0,0,0,107,47.26l1.2,1.35c.85,1,1.46,1.65,2,2.24h0a1.23,1.23,0,0,0,0-.52V47.68a8.6,8.6,0,0,0-.25-2.57c-.07-.11-.27-.19-.77-.25l-.21,0c-.09-.08-.07-.28,0-.31l1.46,0c.53,0,.86,0,1.28,0a.21.21,0,0,1,0,.31l-.17,0c-.4.06-.65.16-.7.26a10.11,10.11,0,0,0-.18,2.56Z" transform="translate(0 0)"/><path class="cls-4" d="M120.33,51.49c0,.49.08.79.3.88a.1.1,0,0,1,0,.15,2.83,2.83,0,0,0-.61.11,9.91,9.91,0,0,1-2.22.32A5.18,5.18,0,0,1,114,51.57a3.9,3.9,0,0,1-1.14-2.81A4.25,4.25,0,0,1,114,45.82a5.13,5.13,0,0,1,3.93-1.45,7.53,7.53,0,0,1,1.58.18,3,3,0,0,0,.77.11,14,14,0,0,0,.18,1.8c0,.1-.26.11-.33,0a2.27,2.27,0,0,0-2.54-1.76,3.29,3.29,0,0,0-3.47,3.57c0,2.38,1.23,4.26,3.73,4.26.76,0,1.22-.17,1.36-.38a1.39,1.39,0,0,0,.12-.7V51c0-1,0-1.12-.8-1.2l-.55-.07a.2.2,0,0,1,0-.3c.36,0,1,0,1.78,0,.48,0,.9,0,1.31,0a.2.2,0,0,1,0,.3l-.19,0c-.53.06-.54.41-.54,1Z" transform="translate(0 0)"/><path class="cls-4" d="M123.74,46.45c0-1.32,0-1.53-.76-1.59l-.31,0c-.07-.05,0-.28,0-.31l1.56,0,1.54,0c.07,0,.1.26,0,.31l-.31,0c-.73.06-.75.27-.75,1.59v4.42c0,1.31,0,1.48.75,1.57l.31,0c.08.05.05.27,0,.31-.62,0-1,0-1.54,0s-.94,0-1.56,0a.24.24,0,0,1,0-.31l.31,0c.73-.09.76-.26.76-1.57Z" transform="translate(0 0)"/><path class="cls-4" d="M135.22,50.64c0,.37,0,1.85,0,2.17,0,.08-.1.14-.24.14-.14-.21-.5-.64-1.58-1.87l-2.88-3.28c-.34-.38-1.18-1.4-1.44-1.67h0a3,3,0,0,0-.07.8v2.71a9.79,9.79,0,0,0,.23,2.57c.07.13.32.21.63.23l.38,0a.22.22,0,0,1,0,.31c-.56,0-1,0-1.45,0s-.86,0-1.29,0a.23.23,0,0,1,0-.31l.34,0c.28,0,.48-.11.54-.25a11.53,11.53,0,0,0,.16-2.55V46.05a1.13,1.13,0,0,0-.27-.89,1.38,1.38,0,0,0-.77-.3l-.21,0c-.07-.08-.07-.26,0-.31.52,0,1.17,0,1.4,0a4.91,4.91,0,0,0,.57,0,17.31,17.31,0,0,0,2.12,2.73l1.2,1.35c.86,1,1.47,1.65,2,2.24h0c.06-.06.06-.26.06-.52V47.68a8.94,8.94,0,0,0-.25-2.57c-.08-.11-.28-.19-.77-.25l-.21,0c-.09-.08-.08-.28,0-.31l1.46,0c.54,0,.86,0,1.28,0a.22.22,0,0,1,0,.31l-.18,0c-.39.06-.64.16-.69.26a10.09,10.09,0,0,0-.19,2.56Z" transform="translate(0 0)"/><path class="cls-4" d="M138.88,46.43c0-1.3,0-1.48-.76-1.57l-.2,0c-.07-.05,0-.28,0-.31.53,0,1,0,1.46,0h2.33c.8,0,1.53,0,1.68,0a14.82,14.82,0,0,1,.2,1.65c-.05.07-.25.1-.31,0-.19-.58-.3-1-.95-1.18a6.09,6.09,0,0,0-1.2-.07h-.89c-.37,0-.37,0-.37.5v2.48c0,.34,0,.34.41.34H141a4.68,4.68,0,0,0,1.06-.07c.15-.05.24-.12.3-.43l.1-.51a.23.23,0,0,1,.32,0c0,.3-.05.78-.05,1.25s.05.92.05,1.19a.23.23,0,0,1-.32,0l-.12-.48a.51.51,0,0,0-.38-.47,4.16,4.16,0,0,0-1-.06h-.71c-.38,0-.41,0-.41.33v1.75c0,.66,0,1.08.23,1.29s.41.29,1.5.29a3.54,3.54,0,0,0,1.59-.19,3.11,3.11,0,0,0,.88-1.2.23.23,0,0,1,.31.08,11.32,11.32,0,0,1-.56,1.73c-1.11,0-2.22,0-3.32,0h-1.12c-.53,0-.95,0-1.69,0a.25.25,0,0,1,0-.31l.41,0c.71-.06.77-.25.77-1.55Z" transform="translate(0 0)"/><path class="cls-4" d="M146.74,46.43c0-1.3,0-1.48-.76-1.57l-.19,0c-.08-.05,0-.28,0-.31.53,0,.95,0,1.46,0h2.34c.79,0,1.52,0,1.67,0a14.82,14.82,0,0,1,.2,1.65c0,.07-.25.1-.31,0-.19-.58-.3-1-.94-1.18A6.2,6.2,0,0,0,149,45h-.89c-.37,0-.37,0-.37.5v2.48c0,.34,0,.34.41.34h.72a4.63,4.63,0,0,0,1.05-.07c.15-.05.24-.12.3-.43l.1-.51a.23.23,0,0,1,.32,0c0,.3,0,.78,0,1.25s0,.92,0,1.19a.23.23,0,0,1-.32,0l-.11-.48a.53.53,0,0,0-.39-.47,4.11,4.11,0,0,0-1-.06h-.72c-.37,0-.41,0-.41.33v1.75a2.09,2.09,0,0,0,.23,1.29c.15.15.41.29,1.5.29a3.54,3.54,0,0,0,1.59-.19A3,3,0,0,0,152,51a.23.23,0,0,1,.31.08,10.32,10.32,0,0,1-.55,1.73c-1.12,0-2.23,0-3.33,0h-1.12c-.53,0-1,0-1.68,0a.24.24,0,0,1,0-.31l.41,0c.71-.06.77-.25.77-1.55Z" transform="translate(0 0)"/><path class="cls-4" d="M154.6,46.44c0-1.18,0-1.39-.54-1.45l-.4-.05a.2.2,0,0,1,0-.31c.7-.07,1.55-.1,2.77-.1a4.38,4.38,0,0,1,2.07.37,1.86,1.86,0,0,1,1,1.74A2.3,2.3,0,0,1,158,48.71c-.06.07,0,.2.06.3a13.48,13.48,0,0,0,2.49,3.3,1.54,1.54,0,0,0,.86.34.11.11,0,0,1,0,.18,2.23,2.23,0,0,1-.54.06c-1.06,0-1.69-.31-2.57-1.56-.32-.46-.83-1.32-1.22-1.88a.88.88,0,0,0-.88-.4c-.56,0-.58,0-.58.28v1.56c0,1.3,0,1.45.74,1.55l.26,0a.24.24,0,0,1,0,.31c-.56,0-1,0-1.48,0s-1,0-1.55,0a.24.24,0,0,1,0-.31l.31,0c.72-.08.74-.25.74-1.55Zm1,1.77c0,.23,0,.36,0,.41s.22.06.85.06a2.1,2.1,0,0,0,1.28-.32,1.76,1.76,0,0,0,.62-1.54,1.83,1.83,0,0,0-2-1.91c-.77,0-.81.05-.81.4Z" transform="translate(0 0)"/><path class="cls-4" d="M163.22,46.45c0-1.32,0-1.53-.76-1.59l-.31,0c-.07-.05-.05-.28,0-.31l1.56,0,1.54,0c.08,0,.1.26,0,.31l-.31,0c-.73.06-.75.27-.75,1.59v4.42c0,1.31,0,1.48.75,1.57l.31,0c.08.05.06.27,0,.31-.62,0-1,0-1.54,0s-.94,0-1.56,0a.24.24,0,0,1,0-.31l.31,0c.74-.09.76-.26.76-1.57Z" transform="translate(0 0)"/><path class="cls-4" d="M174.71,50.64c0,.37,0,1.85,0,2.17a.21.21,0,0,1-.23.14c-.15-.21-.51-.64-1.59-1.87L170,47.8c-.33-.38-1.18-1.4-1.44-1.67h0a3.12,3.12,0,0,0-.06.8v2.71a9.82,9.82,0,0,0,.22,2.57c.07.13.32.21.63.23l.39,0a.23.23,0,0,1,0,.31c-.56,0-1,0-1.45,0s-.86,0-1.29,0a.23.23,0,0,1,0-.31l.34,0c.29,0,.48-.11.55-.25a12.17,12.17,0,0,0,.16-2.55V46.05a1.14,1.14,0,0,0-.28-.89,1.38,1.38,0,0,0-.77-.3l-.21,0c-.07-.08-.07-.26,0-.31.52,0,1.18,0,1.4,0a4.91,4.91,0,0,0,.57,0,17.31,17.31,0,0,0,2.12,2.73l1.21,1.35c.85,1,1.46,1.65,2,2.24h0a1.23,1.23,0,0,0,0-.52V47.68a8.6,8.6,0,0,0-.25-2.57c-.08-.11-.27-.19-.77-.25l-.21,0c-.09-.08-.08-.28,0-.31l1.47,0c.53,0,.85,0,1.28,0a.21.21,0,0,1,0,.31l-.17,0c-.4.06-.65.16-.7.26a10.11,10.11,0,0,0-.18,2.56Z" transform="translate(0 0)"/><path class="cls-4" d="M184.15,51.49c0,.49.08.79.3.88a.1.1,0,0,1,0,.15,2.94,2.94,0,0,0-.61.11,9.91,9.91,0,0,1-2.22.32,5.14,5.14,0,0,1-3.78-1.38,3.86,3.86,0,0,1-1.14-2.81,4.24,4.24,0,0,1,1.11-2.94,5.14,5.14,0,0,1,3.94-1.45,7.5,7.5,0,0,1,1.57.18,3,3,0,0,0,.77.11,12.65,12.65,0,0,0,.19,1.8c0,.1-.26.11-.34,0a2.27,2.27,0,0,0-2.54-1.76,3.29,3.29,0,0,0-3.46,3.57c0,2.38,1.23,4.26,3.72,4.26.77,0,1.23-.17,1.36-.38a1.25,1.25,0,0,0,.13-.7V51c0-1,0-1.12-.81-1.2l-.55-.07a.2.2,0,0,1,0-.3c.36,0,1.05,0,1.78,0,.48,0,.9,0,1.31,0,.09,0,.1.23,0,.3l-.2,0c-.52.06-.54.41-.54,1Z" transform="translate(0 0)"/></svg>